<svg width="122" height="40" fill="none" xmlns="http://www.w3.org/2000/svg"><g clip-path="url(#clip0_1_399)"><path d="M112.286.946H8.601c-.305 0-.625.014-.93.014a13.8 13.8 0 00-2.044.173 6.578 6.578 0 00-1.936.605 6.354 6.354 0 00-1.647 1.138c-.488.46-.9.979-1.205 1.555a6.563 6.563 0 00-.64 1.829 13.563 13.563 0 00-.184 1.93C0 8.476 0 8.78 0 9.081V31.33c0 .303 0 .59.015.893.015.648.076 1.296.183 1.93.107.634.32 1.253.64 1.829a6.034 6.034 0 001.205 1.555c.488.46 1.037.835 1.647 1.138.61.288 1.266.504 1.937.605.671.1 1.357.158 2.044.172.32 0 .625.015.93.015h104.768c.305 0 .625 0 .945-.015a16.072 16.072 0 002.044-.172 7.837 7.837 0 001.952-.605 6.09 6.09 0 001.646-1.138c.488-.46.885-.98 1.205-1.555a6.055 6.055 0 00.625-1.829c.107-.634.183-1.282.183-1.93v-.892c.016-.346.016-.692.016-1.052V10.133c0-.345 0-.705-.016-1.05v-.894a13.49 13.49 0 00-.183-1.93 6.056 6.056 0 00-.625-1.828 6.429 6.429 0 00-2.851-2.693 7.456 7.456 0 00-1.952-.605c-.671-.1-1.358-.158-2.044-.173-.305 0-.625-.014-.945-.014h-1.083z" fill="#A6A6A6"/><path d="M8.616 38.617c-.305 0-.61 0-.915-.014a13.976 13.976 0 01-1.906-.159 6.225 6.225 0 01-1.693-.533 5.306 5.306 0 01-1.418-.979 4.956 4.956 0 01-1.037-1.339 5 5 0 01-.549-1.598 10.142 10.142 0 01-.168-1.8c0-.202-.015-.879-.015-.879V9.082S.93 8.42.93 8.218c-.015-.605.046-1.21.137-1.8a5.4 5.4 0 01.55-1.598c.259-.504.61-.95 1.036-1.34a5.07 5.07 0 011.434-.979 5.74 5.74 0 011.693-.518c.625-.1 1.265-.144 1.906-.159l.915-.014h104.767l.931.014c.64 0 1.265.058 1.891.159.594.1 1.159.273 1.708.533 1.052.518 1.921 1.324 2.455 2.333.259.504.442 1.036.549 1.584.107.604.168 1.21.183 1.814v.864c.015.36.015.706.015 1.051v20.146c0 .346 0 .691-.015 1.037v.893a13.759 13.759 0 01-.168 1.785 5.056 5.056 0 01-.549 1.613 5.63 5.63 0 01-1.037 1.34 5.09 5.09 0 01-1.433.979 6.34 6.34 0 01-1.708.532c-.626.101-1.266.145-1.907.159-.305 0-.61.014-.915.014h-1.098L8.616 38.617z" fill="#000"/><path d="M25.254 20.487c.015-1.627.93-3.14 2.41-4.003-.93-1.253-2.44-2.03-4.072-2.074-1.708-.173-3.37.965-4.24.965-.884 0-2.226-.95-3.675-.922-1.906.058-3.63 1.051-4.56 2.621-1.967 3.226-.503 7.963 1.388 10.57.946 1.281 2.044 2.707 3.492 2.65 1.419-.058 1.937-.85 3.645-.85 1.693 0 2.18.85 3.66.82 1.525-.028 2.47-1.281 3.386-2.563a10.237 10.237 0 001.555-2.98c-1.815-.72-2.989-2.377-2.989-4.234zm-2.791-7.791a4.568 4.568 0 001.144-3.355c-1.266.13-2.425.691-3.263 1.599-.824.892-1.25 2.059-1.16 3.24 1.266.014 2.486-.533 3.28-1.484zm20.664 14.372h-4.819l-1.159 3.226h-2.044l4.576-11.952h2.12l4.574 11.952h-2.074l-1.174-3.226zm-4.331-1.483h3.828l-1.891-5.242h-.046l-1.891 5.242zm17.446.36c0 2.707-1.54 4.45-3.858 4.45-1.205.058-2.318-.533-2.898-1.526h-.046v4.32h-1.89V21.582h1.83v1.454h.03c.61-.979 1.738-1.584 2.943-1.54 2.333 0 3.889 1.756 3.889 4.45zm-1.952 0c0-1.771-.96-2.923-2.44-2.923-1.449 0-2.425 1.18-2.425 2.923 0 1.757.976 2.938 2.425 2.938 1.48 0 2.44-1.152 2.44-2.938zm12.108 0c0 2.707-1.54 4.45-3.858 4.45-1.204.058-2.318-.533-2.897-1.526h-.046v4.32h-1.891V21.582h1.83v1.454h.03c.61-.979 1.739-1.584 2.944-1.54 2.348 0 3.889 1.756 3.889 4.45zm-1.951 0c0-1.771-.961-2.923-2.44-2.923-1.45 0-2.425 1.18-2.425 2.923 0 1.757.976 2.938 2.425 2.938 1.479 0 2.44-1.152 2.44-2.938zm8.661 1.023c.138 1.18 1.358 1.958 3.02 1.958 1.601 0 2.745-.777 2.745-1.843 0-.922-.686-1.483-2.333-1.858l-1.647-.374c-2.318-.533-3.401-1.555-3.401-3.226 0-2.059 1.906-3.485 4.605-3.485 2.67 0 4.514 1.412 4.575 3.485h-1.906c-.122-1.195-1.159-1.915-2.684-1.915-1.525 0-2.577.734-2.577 1.786 0 .85.67 1.339 2.303 1.728l1.387.317c2.593.575 3.676 1.57 3.676 3.311 0 2.233-1.891 3.644-4.88 3.644-2.806 0-4.697-1.368-4.82-3.528h1.937zm11.865-7.445v2.06h1.754v1.41h-1.754v4.81c0 .75.35 1.095 1.128 1.095.214 0 .412-.015.626-.043v1.41a6.449 6.449 0 01-1.053.087c-1.876 0-2.592-.662-2.592-2.347v-4.997H81.74v-1.411h1.342v-2.074h1.89zm2.776 6.422c0-2.736 1.708-4.464 4.376-4.464 2.669 0 4.377 1.728 4.377 4.464 0 2.751-1.693 4.465-4.377 4.465-2.684 0-4.376-1.714-4.376-4.465zm6.816 0c0-1.886-.915-2.995-2.455-2.995s-2.44 1.123-2.44 2.995c0 1.887.915 2.996 2.44 2.996 1.555 0 2.455-1.11 2.455-2.995zm3.493-4.349h1.8v1.483h.045c.259-.95 1.174-1.612 2.226-1.57.214 0 .443.03.656.073v1.67a2.837 2.837 0 00-.854-.115c-1.052-.043-1.937.734-1.982 1.728 0 .087 0 .187.015.274v5.17h-1.906v-8.713zm13.465 6.149c-.259 1.585-1.891 2.665-3.98 2.665-2.684 0-4.346-1.7-4.346-4.421 0-2.736 1.677-4.508 4.27-4.508 2.547 0 4.163 1.656 4.163 4.306v.62h-6.512v.114c-.122 1.253.854 2.348 2.181 2.463.107.014.198.014.305.014.915.087 1.784-.417 2.135-1.224l1.784-.029zm-6.405-2.606h4.621c.061-1.152-.869-2.145-2.089-2.203h-.168c-1.296-.014-2.348.98-2.348 2.189-.016 0-.016.014-.016.014zM37.454 11.774h.808c.564.073 1.068-.302 1.144-.835v-.072c0-.533-.427-.878-1.144-.878-.595-.072-1.144.317-1.22.878v.03h-.9c.061-.995.961-1.758 2.013-1.686.046 0 .092 0 .138.015 1.204 0 2.043.633 2.043 1.54 0 .634-.457 1.181-1.098 1.31v.073c.778.029 1.388.648 1.357 1.382-.122 1.051-1.113 1.815-2.226 1.714h-.046c-1.113.144-2.12-.59-2.272-1.627 0-.03 0-.043-.015-.072h.9c.06.547.594.907 1.372.907.778 0 1.296-.403 1.296-.965 0-.576-.488-.921-1.327-.921h-.838v-.793h.015zm4.178 2.089c0-.778.61-1.224 1.708-1.296l1.25-.072v-.375c0-.46-.32-.72-.945-.72-.503 0-.854.173-.96.475H41.8c.092-.748.839-1.224 1.876-1.224 1.144 0 1.8.548 1.8 1.455v2.966h-.87v-.59h-.076c-.29.446-.824.705-1.373.677-.762.072-1.448-.447-1.525-1.167v-.13zm2.944-.36v-.36l-1.129.072c-.625.043-.915.244-.915.619 0 .389.366.619.854.619.595.058 1.129-.346 1.19-.907v-.043zm3.309-2.017v3.615h-.9v-4.335h3.02v.72h-2.12zm7.61 1.441c0 1.382-.732 2.246-1.891 2.246a1.516 1.516 0 01-1.419-.734h-.076v2.102h-.9v-5.774h.87v.72h.06c.29-.504.84-.807 1.45-.792 1.158 0 1.906.85 1.906 2.232zm-.93 0c0-.922-.458-1.47-1.22-1.47-.763 0-1.236.562-1.236 1.47 0 .907.473 1.468 1.235 1.468.763 0 1.22-.547 1.22-1.468zm2.135 3.715v-.735c.09.015.198.015.29.015.396.028.762-.23.823-.605l.06-.216-1.662-4.349h.992l1.143 3.442h.077l1.143-3.442h.961l-1.708 4.507c-.396 1.051-.823 1.397-1.769 1.397-.046.014-.26 0-.35-.014zm4.56-2.779h.899c.091.388.473.575.991.575.61 0 .976-.244.976-.648 0-.417-.335-.619-.976-.619h-.686v-.662h.67c.55 0 .824-.202.824-.562 0-.317-.274-.561-.823-.561-.503 0-.885.201-.93.547h-.87c.138-.821.946-1.383 1.815-1.267 1.098 0 1.708.46 1.708 1.195.015.417-.29.792-.732.893v.072a.99.99 0 01.9.979c0 .82-.747 1.368-1.876 1.368-.991 0-1.815-.432-1.89-1.31zm5.077 1.237v-4.334h.9v2.981h.076l2.12-2.98h.9V15.1h-.9v-3.01h-.06l-2.12 2.995-.916.015zm8.937-3.614h-1.449v3.615h-.9v-3.615h-1.448v-.72h3.797v.72zm4.88 2.434c-.26.82-1.098 1.339-1.998 1.253-1.144.028-2.104-.836-2.135-1.916 0-.1 0-.216.016-.316-.153-1.095.655-2.103 1.814-2.247.107-.014.198-.014.305-.014 1.281 0 2.044.82 2.044 2.188v.303h-3.25v.043c-.06.634.443 1.18 1.099 1.239h.121c.443.043.87-.159 1.098-.519l.885-.014zm-3.187-1.397h2.318c.046-.576-.412-1.08-1.022-1.123h-.107c-.64-.015-1.174.475-1.19 1.094v.029zm7.015-1.757h2.074c.9 0 1.418.432 1.418 1.109 0 .446-.32.82-.778.921v.072c.564.03.991.476.976.994 0 .763-.595 1.253-1.616 1.253h-2.09v-4.349h.016zm.9.648v1.123h.9c.548 0 .807-.201.807-.561 0-.332-.228-.562-.701-.562H84.88zm0 1.757v1.267h1.067c.534 0 .823-.23.823-.633 0-.432-.32-.634-.93-.634h-.96z" fill="#fff"/></g><defs><clipPath id="clip0_1_399"><path fill="#fff" transform="translate(0 .946)" d="M0 0h122v38.506H0z"/></clipPath></defs></svg>