<svg width="135" height="40" fill="none" xmlns="http://www.w3.org/2000/svg"><path d="M130 39.452H5c-2.8 0-5-2.214-5-4.813V5.759C0 3.064 2.3.946 5 .946h125c2.8 0 5 2.214 5 4.813v28.88c0 2.695-2.2 4.813-5 4.813z" fill="#000"/><path d="M130 1.716c2.3 0 4.2 1.83 4.2 4.043v28.88c0 2.214-1.9 4.043-4.2 4.043H5c-2.3 0-4.2-1.829-4.2-4.043V5.759C.8 3.545 2.7 1.716 5 1.716h125zm0-.77H5c-2.7 0-5 2.214-5 4.813v28.88c0 2.695 2.3 4.813 5 4.813h125c2.8 0 5-2.214 5-4.813V5.759c0-2.599-2.2-4.813-5-4.813z" fill="#A6A6A6"/><path d="M68.1 21.931c-2.4 0-4.3 1.733-4.3 4.14 0 2.31 1.9 4.14 4.3 4.14s4.3-1.733 4.3-4.14c0-2.503-1.9-4.14-4.3-4.14zm0 6.546c-1.3 0-2.4-1.058-2.4-2.502 0-1.444 1.1-2.503 2.4-2.503 1.3 0 2.4.962 2.4 2.503 0 1.444-1.1 2.502-2.4 2.502zm-9.3-6.546c-2.4 0-4.3 1.733-4.3 4.14 0 2.31 1.9 4.14 4.3 4.14s4.3-1.733 4.3-4.14c0-2.503-1.9-4.14-4.3-4.14zm0 6.546c-1.3 0-2.4-1.058-2.4-2.502 0-1.444 1.1-2.503 2.4-2.503 1.3 0 2.4.962 2.4 2.503 0 1.444-1.1 2.502-2.4 2.502zm-11.1-5.294v1.733H52c-.1.962-.5 1.732-1 2.214-.6.577-1.6 1.251-3.3 1.251-2.7 0-4.7-2.021-4.7-4.62 0-2.6 2.1-4.621 4.7-4.621 1.4 0 2.5.577 3.3 1.251l1.3-1.251c-1.1-.963-2.5-1.733-4.5-1.733-3.6 0-6.7 2.888-6.7 6.354 0 3.465 3.1 6.353 6.7 6.353 2 0 3.4-.578 4.6-1.829 1.2-1.155 1.6-2.792 1.6-4.043 0-.385 0-.77-.1-1.06h-6.2zm45.4 1.348c-.4-.963-1.4-2.6-3.6-2.6s-4 1.637-4 4.14c0 2.31 1.8 4.14 4.2 4.14 1.9 0 3.1-1.156 3.5-1.83l-1.4-.962c-.5.674-1.1 1.155-2.1 1.155s-1.6-.385-2.1-1.252l5.7-2.31-.2-.481zm-5.8 1.347c0-1.54 1.3-2.406 2.2-2.406.7 0 1.4.385 1.6.866l-3.8 1.54zm-4.7 3.947h1.9V17.792h-1.9v12.033zm-3-7.027c-.5-.481-1.3-.963-2.3-.963-2.1 0-4.1 1.83-4.1 4.14 0 2.31 1.9 4.043 4.1 4.043 1 0 1.8-.482 2.2-.963h.1v.578c0 1.54-.9 2.406-2.3 2.406-1.1 0-1.9-.77-2.1-1.444l-1.6.674c.5 1.06 1.7 2.407 3.8 2.407 2.2 0 4-1.252 4-4.236v-7.316h-1.8v.674zm-2.2 5.68c-1.3 0-2.4-1.06-2.4-2.503 0-1.444 1.1-2.503 2.4-2.503 1.3 0 2.3 1.059 2.3 2.503 0 1.444-1 2.502-2.3 2.502zm24.4-10.686h-4.5v12.033h1.9v-4.524h2.6c2.1 0 4.1-1.444 4.1-3.755 0-2.31-2-3.754-4.1-3.754zm.1 5.776h-2.7v-4.14h2.7c1.4 0 2.2 1.156 2.2 2.022-.1 1.06-.9 2.118-2.2 2.118zm11.5-1.733c-1.4 0-2.8.578-3.3 1.83l1.7.673c.4-.674 1-.866 1.7-.866 1 0 1.9.577 2 1.54v.096c-.3-.192-1.1-.481-1.9-.481-1.8 0-3.6.963-3.6 2.695 0 1.637 1.5 2.696 3.1 2.696 1.3 0 1.9-.578 2.4-1.155h.1v.962h1.8v-4.62c-.2-2.118-1.9-3.37-4-3.37zm-.2 6.642c-.6 0-1.5-.288-1.5-1.058 0-.963 1.1-1.252 2-1.252.8 0 1.2.193 1.7.385-.2 1.155-1.2 1.925-2.2 1.925zm10.5-6.353l-2.1 5.198h-.1l-2.2-5.198h-2l3.3 7.316-1.9 4.043h1.9l5.1-11.359h-2zm-16.8 7.701h1.9V17.792h-1.9v12.033z" fill="#fff"/><path d="M10.4 8.166c-.3.289-.4.77-.4 1.348v21.274c0 .578.2 1.06.5 1.348l.1.096L23 20.296v-.193L10.4 8.166z" fill="url(#paint0_linear_1_372)"/><path d="M27 24.339l-4.1-3.947v-.289l4.1-3.947.1.096 4.9 2.696c1.4.77 1.4 2.021 0 2.791l-5 2.6z" fill="url(#paint1_linear_1_372)"/><path d="M27.1 24.242L22.9 20.2 10.4 32.232c.5.482 1.2.482 2.1.097l14.6-8.087z" fill="url(#paint2_linear_1_372)"/><path d="M27.1 16.157l-14.6-7.99c-.9-.482-1.6-.386-2.1.096L22.9 20.2l4.2-4.043z" fill="url(#paint3_linear_1_372)"/><path opacity=".2" d="M27 24.147L12.5 32.04c-.8.48-1.5.385-2 0l-.1.096.1.096c.5.385 1.2.481 2 0L27 24.147z" fill="#000"/><path opacity=".12" d="M10.4 32.04c-.3-.288-.4-.77-.4-1.347v.096c0 .578.2 1.06.5 1.348v-.096h-.1zM32 21.45l-5 2.696.1.096 4.9-2.695c.7-.385 1-.867 1-1.348 0 .481-.4.867-1 1.252z" fill="#000"/><path opacity=".25" d="M12.5 8.263L32 18.948c.6.385 1 .77 1 1.252 0-.482-.3-.963-1-1.348L12.5 8.166c-1.4-.77-2.5-.192-2.5 1.348v.096c0-1.444 1.1-2.118 2.5-1.347z" fill="#fff"/><defs><linearGradient id="paint0_linear_1_372" x1="21.8" y1="9.331" x2="5.656" y2="26.101" gradientUnits="userSpaceOnUse"><stop stop-color="#00A0FF"/><stop offset=".007" stop-color="#00A1FF"/><stop offset=".26" stop-color="#00BEFF"/><stop offset=".512" stop-color="#00D2FF"/><stop offset=".76" stop-color="#00DFFF"/><stop offset="1" stop-color="#00E3FF"/></linearGradient><linearGradient id="paint1_linear_1_372" x1="33.834" y1="20.201" x2="9.637" y2="20.201" gradientUnits="userSpaceOnUse"><stop stop-color="#FFE000"/><stop offset=".409" stop-color="#FFBD00"/><stop offset=".775" stop-color="orange"/><stop offset="1" stop-color="#FF9C00"/></linearGradient><linearGradient id="paint2_linear_1_372" x1="24.827" y1="22.41" x2="2.934" y2="45.151" gradientUnits="userSpaceOnUse"><stop stop-color="#FF3A44"/><stop offset="1" stop-color="#C31162"/></linearGradient><linearGradient id="paint3_linear_1_372" x1="7.297" y1="1.116" x2="17.073" y2="11.271" gradientUnits="userSpaceOnUse"><stop stop-color="#32A071"/><stop offset=".069" stop-color="#2DA771"/><stop offset=".476" stop-color="#15CF74"/><stop offset=".801" stop-color="#06E775"/><stop offset="1" stop-color="#00F076"/></linearGradient></defs></svg>