<svg width="132" height="128" fill="none" xmlns="http://www.w3.org/2000/svg"><mask id="a" style="mask-type:alpha" maskUnits="userSpaceOnUse" x="0" y="0" width="129" height="128"><path d="M93.714 125.941H19.73c-23.601 0-22.618-34.934 0-34.934h38.844c19.053 0 20.346-27.223 1.293-27.223H34.9" stroke="url(#paint0_linear_1_317)" stroke-width="4" stroke-linecap="round" stroke-linejoin="round" stroke-dasharray="6 6"/><circle cx="104.548" cy="85.578" r="10.834" stroke="url(#paint1_linear_1_317)" stroke-width="4"/><path d="M126.216 86.002c0-12.068-9.783-21.85-21.85-21.85-12.068 0-21.85 9.782-21.85 21.85 0 3.796.967 7.366 2.67 10.476 2.364 5.376 5.225 9.701 8.012 14.288 1.424 2.344 3.046 4.757 4.734 7.283 1.623 2.43 3.292 4.966 5.705 7.648 0 0 .243.243.729.243.485 0 .728-.243.728-.243" stroke="url(#paint2_linear_1_317)" stroke-width="4"/><path d="M82.515 86.002c0-12.068 9.783-21.85 21.85-21.85 12.068 0 21.851 9.782 21.851 21.85 0 3.796-.968 7.366-2.671 10.476-2.363 5.376-5.225 9.701-8.012 14.288-1.424 2.344-3.046 4.757-4.734 7.283-1.623 2.43-3.291 4.966-5.705 7.648" stroke="url(#paint3_linear_1_317)" stroke-width="4"/><path d="M105.093 125.697s-.242.243-.728.243" stroke="url(#paint4_linear_1_317)" stroke-width="4" stroke-linecap="round"/><circle cx="24.065" cy="23.669" r="10.834" stroke="url(#paint5_linear_1_317)" stroke-width="4"/><path d="M46.098 23.85C46.098 11.784 36.315 2 24.248 2 12.18 2 2.397 11.783 2.397 23.85c0 3.796.967 7.366 2.67 10.477 2.363 5.376 5.225 9.7 8.011 14.287 1.425 2.345 3.047 4.757 4.735 7.284 1.623 2.43 3.291 4.965 5.705 7.647 0 0 .243.243.729.243.485 0 .728-.243.728-.243" stroke="url(#paint6_linear_1_317)" stroke-width="4"/><path d="M2.397 23.85C2.397 11.784 12.18 2 24.247 2c12.069 0 21.851 9.783 21.851 21.85 0 3.796-.968 7.366-2.67 10.477-2.364 5.376-5.226 9.7-8.012 14.287-1.424 2.345-3.047 4.757-4.734 7.284-1.624 2.43-3.292 4.965-5.706 7.647" stroke="url(#paint7_linear_1_317)" stroke-width="4"/><path d="M24.975 63.546s-.243.243-.728.243" stroke="url(#paint8_linear_1_317)" stroke-width="4" stroke-linecap="round"/></mask><g mask="url(#a)"><path fill="url(#paint9_linear_1_317)" d="M.397 0h128v128h-128z"/></g><defs><linearGradient id="paint0_linear_1_317" x1="2.397" y1="63.784" x2="93.714" y2="63.784" gradientUnits="userSpaceOnUse"><stop stop-color="#2790F1"/><stop offset="1" stop-color="#0761E9"/></linearGradient><linearGradient id="paint1_linear_1_317" x1="93.714" y1="74.743" x2="115.382" y2="74.743" gradientUnits="userSpaceOnUse"><stop stop-color="#2790F1"/><stop offset="1" stop-color="#0761E9"/></linearGradient><linearGradient id="paint2_linear_1_317" x1="82.515" y1="64.151" x2="126.216" y2="64.151" gradientUnits="userSpaceOnUse"><stop stop-color="#2790F1"/><stop offset="1" stop-color="#0761E9"/></linearGradient><linearGradient id="paint3_linear_1_317" x1="126.216" y1="64.151" x2="82.515" y2="64.151" gradientUnits="userSpaceOnUse"><stop stop-color="#2790F1"/><stop offset="1" stop-color="#0761E9"/></linearGradient><linearGradient id="paint4_linear_1_317" x1="104.365" y1="125.697" x2="105.093" y2="125.697" gradientUnits="userSpaceOnUse"><stop stop-color="#2790F1"/><stop offset="1" stop-color="#0761E9"/></linearGradient><linearGradient id="paint5_linear_1_317" x1="13.231" y1="12.835" x2="34.899" y2="12.835" gradientUnits="userSpaceOnUse"><stop stop-color="#2790F1"/><stop offset="1" stop-color="#0761E9"/></linearGradient><linearGradient id="paint6_linear_1_317" x1="2.397" y1="2" x2="46.098" y2="2" gradientUnits="userSpaceOnUse"><stop stop-color="#2790F1"/><stop offset="1" stop-color="#0761E9"/></linearGradient><linearGradient id="paint7_linear_1_317" x1="46.098" y1="2" x2="2.397" y2="2" gradientUnits="userSpaceOnUse"><stop stop-color="#2790F1"/><stop offset="1" stop-color="#0761E9"/></linearGradient><linearGradient id="paint8_linear_1_317" x1="24.247" y1="63.546" x2="24.975" y2="63.546" gradientUnits="userSpaceOnUse"><stop stop-color="#2790F1"/><stop offset="1" stop-color="#0761E9"/></linearGradient><linearGradient id="paint9_linear_1_317" x1=".397" y1="0" x2="128.397" y2="0" gradientUnits="userSpaceOnUse"><stop stop-color="#2790F1"/><stop offset="1" stop-color="#0761E9"/></linearGradient></defs></svg>