<svg width="65" height="16" fill="none" xmlns="http://www.w3.org/2000/svg"><g clip-path="url(#clip0_1_359)"><mask id="a" style="mask-type:alpha" maskUnits="userSpaceOnUse" x="0" y="-1" width="65" height="18"><path d="M49.706.043h-6.19V2.45h6.19V.043zm1.274 7.671h-6.19v2.406h6.19V7.714zM18 12.527h8v3.851h-8zm18.961.515h-6.19v2.407h6.19v-2.407zM37.324.043h-6.19V2.45h6.19V.043zm-7.646 0h-6.19V2.45h6.19V.043z" fill="#000"/><path d="M.284.945A1.045 1.045 0 01.228.698C.228.562.28.436.387.322a.818.818 0 01.637-.28h2.492c.296 0 .57.097.82.29.25.194.428.437.534.731l3.005 8.51 2.776-8.51c.22-.673.672-1.014 1.354-1.02H14.1c.683 0 1.134.34 1.354 1.02l2.777 8.51 3.004-8.51a1.59 1.59 0 01.535-.73c.25-.194.524-.29.82-.29h2.492c.265 0 .477.092.637.279.106.114.159.24.159.376a.61.61 0 01-.057.247l-5.075 13.408c-.28.73-.827 1.096-1.639 1.096h-1.65c-.842 0-1.384-.365-1.627-1.096L13.052 6.08l-2.776 8.273c-.25.73-.793 1.096-1.628 1.096H6.987c-.804 0-1.347-.365-1.627-1.096L.284.945zM22.6 13.859c-1.556-1.29-2.333-3.327-2.333-6.113 0-2.787.777-4.82 2.333-6.103C24.155.361 26.43-.28 29.427-.28c3.005 0 5.28.641 6.828 1.923 1.555 1.282 2.333 3.316 2.333 6.103 0 2.786-.778 4.824-2.333 6.113-1.547 1.282-3.823 1.923-6.828 1.923-2.996 0-5.272-.641-6.827-1.923zm3.106-9.949c-.766.86-1.149 2.142-1.149 3.846 0 1.698.383 2.976 1.15 3.836.773.852 2.014 1.278 3.72 1.278 1.715 0 2.955-.426 3.721-1.278.767-.86 1.15-2.138 1.15-3.836 0-1.704-.383-2.986-1.15-3.846-.766-.86-2.006-1.29-3.72-1.29-1.707 0-2.948.43-3.722 1.29zm9.377 10.53V1.062c0-.28.102-.52.307-.72.205-.2.456-.3.751-.3h9.388c1.738 0 3.16.44 4.268 1.32 1.115.882 1.673 2.07 1.673 3.568 0 2.084-1.43 3.391-4.29 3.921a3.53 3.53 0 011.251.817c.395.38.842.935 1.343 1.665l2.071 3.105c.13.208.194.387.194.537a.489.489 0 01-.035.183c-.075.193-.261.29-.557.29h-2.731c-.296 0-.615-.097-.956-.29a2.3 2.3 0 01-.785-.72L45.04 11.58c-.789-1.174-1.752-1.762-2.89-1.762h-2.777v4.62c0 .28-.106.52-.318.72-.205.193-.456.29-.752.29h-2.139c-.296 0-.55-.097-.762-.29a.955.955 0 01-.319-.72zm4.29-7.661h4.848c.774 0 1.46-.147 2.06-.44.599-.294.899-.764.899-1.408 0-.645-.3-1.114-.9-1.408-.591-.293-1.278-.44-2.06-.44h-4.847v3.696zm8.706 7.639V1.063a.99.99 0 01.318-.73c.213-.208.467-.312.763-.312h2.139c.296 0 .546.104.751.311a.99.99 0 01.319.731v5.146h2.446c.668 0 1.252-.172 1.753-.515.508-.344.99-.9 1.445-1.666l1.764-2.965c.402-.688.948-1.035 1.638-1.042h2.63c.295 0 .47.1.522.3.016.05.023.1.023.151 0 .165-.064.362-.193.591l-2.47 4.222c-.356.616-.758 1.125-1.206 1.526-.44.401-1.016.684-1.73.849.501.1 1.013.397 1.537.891a9.91 9.91 0 011.4 1.612l2.844 4.276c.13.208.194.387.194.537a.49.49 0 01-.034.183c-.076.193-.262.29-.558.29h-2.606c-.296 0-.614-.097-.956-.29-.341-.2-.607-.44-.796-.72l-2.003-2.997c-.478-.731-.96-1.279-1.445-1.644-.486-.373-1.07-.559-1.753-.559H52.37v5.222a.922.922 0 01-.319.709c-.205.186-.455.28-.751.28h-2.14a1.07 1.07 0 01-.762-.302.99.99 0 01-.319-.73z" fill="#000"/></mask><g mask="url(#a)"><path fill="url(#paint0_linear_1_359)" d="M0 .012h65v15.402H0z"/></g></g><defs><linearGradient id="paint0_linear_1_359" x1="0" y1=".012" x2="65" y2=".012" gradientUnits="userSpaceOnUse"><stop stop-color="#2790F1"/><stop offset="1" stop-color="#0761E9"/></linearGradient><clipPath id="clip0_1_359"><path fill="#fff" transform="translate(0 .012)" d="M0 0h65v15.402H0z"/></clipPath></defs></svg>