<svg width="133" height="128" fill="none" xmlns="http://www.w3.org/2000/svg"><mask id="a" style="mask-type:alpha" maskUnits="userSpaceOnUse" x="1" y="6" width="127" height="116"><path d="M118.991 62.473h6.727v-9.028H3.626v9.028h6.479v57.428h8.222V62.473m100.664 0v57.177h-7.973V62.473m7.973 0h-7.973m0 0H18.327m0 0l-8.155.027" stroke="#000" stroke-width="4" stroke-linecap="round" stroke-linejoin="round"/><path d="M57.91 53.446c.905-1.244 2.714-4.477 2.714-7.462m0 0H42.988c-2.713 0-4.07-1.356-4.07-3.391v-5.427m21.706 8.818h4.748m0-8.818H38.919m0 0V12.748C38.919 9.696 40.614 8 43.666 8h21.705" stroke="#000" stroke-width="4"/><path d="M72.028 53.446c-.905-1.244-2.713-4.477-2.713-7.462m0 0H86.95c2.713 0 4.07-1.356 4.07-3.391v-5.427m-21.705 8.818h-4.748m0-8.818H91.02m0 0V12.748C91.02 9.696 89.324 8 86.272 8H64.567" stroke="#000" stroke-width="4"/></mask><g mask="url(#a)"><path fill="url(#paint0_linear_1_299)" d="M.673 0h128v128h-128z"/></g><defs><linearGradient id="paint0_linear_1_299" x1=".673" y1="0" x2="128.673" y2="0" gradientUnits="userSpaceOnUse"><stop stop-color="#2790F1"/><stop offset="1" stop-color="#0761E9"/></linearGradient></defs></svg>