<svg width="132" height="128" fill="none" xmlns="http://www.w3.org/2000/svg"><mask id="a" style="mask-type:alpha" maskUnits="userSpaceOnUse" x="8" y="0" width="112" height="128"><path d="M63.68 2c-16.457.386-33.17 3.086-53.1 21.471-4.37 50.785 17.887 86.483 53.1 102.212" stroke="url(#paint0_linear_1_306)" stroke-width="4" stroke-linecap="round"/><path d="M63.68 2c16.456.386 33.17 3.086 53.098 21.471 4.372 50.785-17.886 86.483-53.099 102.212" stroke="url(#paint1_linear_1_306)" stroke-width="4" stroke-linecap="round"/><path d="M63.679 13.864c-13.3.312-26.807 2.494-42.911 17.352-3.533 41.04 14.454 69.89 42.91 82.601" stroke="url(#paint2_linear_1_306)" stroke-width="4" stroke-linecap="round"/><path d="M63.68 13.864c13.3.312 26.806 2.494 42.911 17.352 3.533 41.04-14.454 69.89-42.911 82.601" stroke="url(#paint3_linear_1_306)" stroke-width="4" stroke-linecap="round"/><path d="M48.764 56.513l9.772 9.772L78.85 46.228c1.998-1.998 5.544-1.666 7.456.29 1.902 1.944 2.18 5.5.258 7.424L62.136 78.37c-1.543 1.543-5.4 1.543-6.943 0L41.05 64.228c-5.271-5.272 2.957-12.472 7.714-7.715z" stroke="url(#paint4_linear_1_306)" stroke-width="4" stroke-linecap="round"/></mask><g mask="url(#a)"><path fill="url(#paint5_linear_1_306)" d="M.035 0h128v128h-128z"/></g><defs><linearGradient id="paint0_linear_1_306" x1="10.035" y1="2" x2="63.68" y2="2" gradientUnits="userSpaceOnUse"><stop stop-color="#2790F1"/><stop offset="1" stop-color="#0761E9"/></linearGradient><linearGradient id="paint1_linear_1_306" x1="117.324" y1="2" x2="63.679" y2="2" gradientUnits="userSpaceOnUse"><stop stop-color="#2790F1"/><stop offset="1" stop-color="#0761E9"/></linearGradient><linearGradient id="paint2_linear_1_306" x1="20.326" y1="13.864" x2="63.679" y2="13.864" gradientUnits="userSpaceOnUse"><stop stop-color="#2790F1"/><stop offset="1" stop-color="#0761E9"/></linearGradient><linearGradient id="paint3_linear_1_306" x1="107.032" y1="13.864" x2="63.68" y2="13.864" gradientUnits="userSpaceOnUse"><stop stop-color="#2790F1"/><stop offset="1" stop-color="#0761E9"/></linearGradient><linearGradient id="paint4_linear_1_306" x1="39.349" y1="44.881" x2="87.876" y2="44.881" gradientUnits="userSpaceOnUse"><stop stop-color="#2790F1"/><stop offset="1" stop-color="#0761E9"/></linearGradient><linearGradient id="paint5_linear_1_306" x1=".035" y1="0" x2="128.035" y2="0" gradientUnits="userSpaceOnUse"><stop stop-color="#2790F1"/><stop offset="1" stop-color="#0761E9"/></linearGradient></defs></svg>