<svg width="133" height="128" fill="none" xmlns="http://www.w3.org/2000/svg"><mask id="a" style="mask-type:alpha" maskUnits="userSpaceOnUse" x="1" y="0" width="128" height="128"><path fill-rule="evenodd" clip-rule="evenodd" d="M127.294 43.67c1.067 3.584 1.561 7.135.822 10.718-.743 3.604-2.687 7.025-6.117 10.434-.581 3.992-2.172 7.355-4.749 10.057-2.599 2.724-6.101 4.671-10.313 5.98-4.499 4.821-9.213 6.57-13.666 6.774a2 2 0 11-.183-3.996c3.49-.16 7.345-1.513 11.256-5.87l.38-.422.545-.16c3.991-1.173 6.993-2.873 9.087-5.067 2.072-2.172 3.362-4.94 3.762-8.47l.081-.721.526-.501c3.312-3.156 4.896-6.044 5.473-8.845.583-2.829.191-5.806-.879-9.232l-.158-.507.114-.52c.939-4.259 1.274-6.969.636-9.521-.634-2.532-2.308-5.199-6.118-9.088l-.349-.357-.141-.479c-1.414-4.81-2.843-7.232-4.714-8.826-1.944-1.657-4.58-2.626-9.034-4.014l-.507-.159-.362-.388c-3.847-4.134-7.378-5.303-10.235-5.47-2.336-.135-4.241.36-5.932.8-.506.131-.993.258-1.467.361l-.524.114-.511-.163c-4.011-1.285-7.293-1.283-10.106-.428-2.833.862-5.375 2.645-7.797 5.228l-.381.406-.536.151c-5.233 1.475-8.128 3.519-9.927 5.78-1.836 2.306-2.705 5.04-3.524 8.313l-.126.507-.359.38c-3.094 3.28-4.564 6.193-5.202 8.637a2 2 0 11-3.87-1.01c.802-3.076 2.551-6.435 5.804-9.986.812-3.174 1.855-6.453 4.147-9.333 2.374-2.982 5.927-5.348 11.44-6.984 2.647-2.728 5.642-4.844 9.168-5.916 3.571-1.086 7.517-1.049 11.946.277l.52-.136c1.695-.448 4.422-1.168 7.469-.99 3.833.222 8.176 1.8 12.561 6.346 4.095 1.285 7.376 2.448 9.94 4.633 2.655 2.262 4.347 5.431 5.814 10.264 3.762 3.897 5.926 7.096 6.793 10.559.852 3.404.375 6.797-.497 10.84zM8.612 63.013c.955-3.617 2.382-6.905 4.878-9.58 2.511-2.69 5.952-4.598 10.655-5.722 2.575-3.106 5.684-5.15 9.291-6.114 3.638-.973 7.64-.812 11.919.263 5.015-1.4 9.172-1.102 12.659.177 3.303 1.212 5.864 3.254 7.905 5.26 5.624.953 14.095 6.081 15.875 16.208 2.354 2.583 4.596 5.117 5.826 8.367 1.295 3.421 1.403 7.4.025 12.808.784 3.02 1.302 6.293.575 9.805-.75 3.618-2.768 7.261-6.687 11.076l-.034.137c-.4 1.636-1.085 4.433-3.004 7.205-2.207 3.189-5.934 6.238-12.362 8.098-2.346 2.287-4.944 4.543-8.4 5.808-3.58 1.31-7.845 1.481-13.404.007-3.68.951-7.339 1.198-10.907.278-3.614-.933-6.964-3.019-10.055-6.456-.158-.049-.33-.1-.515-.155-1.68-.5-4.383-1.305-6.893-3.043-3.155-2.186-6.042-5.795-7.42-11.958-2.826-3.23-5.022-5.93-6.074-9.131-1.088-3.314-.883-6.9.38-11.79-1.183-5.287-1.364-9.145-.301-12.552 1.045-3.35 3.218-5.998 6.068-8.996zM6.362 73.2c-.777 2.492-.737 5.64.491 10.945l.113.486-.13.482c-1.297 4.844-1.337 7.655-.57 9.99.797 2.427 2.543 4.626 5.623 8.131l.35.399.107.52c1.132 5.532 3.538 8.369 5.891 9.999 1.923 1.332 3.808 1.901 5.48 2.405.5.152.983.297 1.44.456l.508.175.351.406c2.756 3.185 5.558 4.892 8.405 5.627 2.868.739 5.967.54 9.38-.404l.536-.149.536.15c5.236 1.466 8.771 1.228 11.485.235 2.768-1.013 4.933-2.895 7.336-5.263l.372-.367.504-.138c5.943-1.625 8.968-4.249 10.636-6.659 1.468-2.119 1.978-4.167 2.389-5.814.07-.284.139-.557.208-.816l.147-.547.412-.389c3.756-3.546 5.37-6.627 5.941-9.386.578-2.792.146-5.507-.657-8.467l-.14-.52.139-.52c1.385-5.17 1.178-8.384.234-10.88-.982-2.592-2.836-4.67-5.442-7.526l-.413-.453-.089-.607c-1.283-8.8-8.867-13.057-13.176-13.529l-.71-.078-.5-.509c-1.93-1.965-4.14-3.776-6.913-4.793-2.73-1.002-6.172-1.294-10.677.058l-.544.163-.549-.147c-4.018-1.077-7.466-1.188-10.397-.405-2.9.776-5.443 2.467-7.62 5.272l-.446.574-.71.154c-4.47.97-7.327 2.611-9.278 4.702-1.97 2.11-3.186 4.857-4.056 8.339l-.129.516-.368.384c-3.02 3.147-4.716 5.287-5.5 7.798zM44.926 86a1.486 1.486 0 100-2.97 1.486 1.486 0 000 2.97zm0 4a5.485 5.485 0 100-10.97 5.485 5.485 0 000 10.97zm23.682-17.988a1.486 1.486 0 11-2.971 0 1.486 1.486 0 012.971 0zm4 0a5.486 5.486 0 11-10.971 0 5.486 5.486 0 0110.971 0zm-27.682-9.487a3.527 3.527 0 100-7.053 3.527 3.527 0 000 7.053zm0 4a7.527 7.527 0 100-15.053 7.527 7.527 0 000 15.053zm-21.477 17.99a3.527 3.527 0 11-7.054 0 3.527 3.527 0 017.054 0zm4 0a7.527 7.527 0 11-15.054 0 7.527 7.527 0 0115.054 0zm30.232 25.213a3.527 3.527 0 100-7.053 3.527 3.527 0 000 7.053zm0 4a7.527 7.527 0 100-15.053 7.527 7.527 0 000 15.053zm-21.732-7.526a3.527 3.527 0 11-7.054-.001 3.527 3.527 0 017.054.001zm4 0a7.527 7.527 0 11-15.054-.001 7.527 7.527 0 0115.054.001zm43.88-61.207a1.486 1.486 0 112.536-1.547 1.486 1.486 0 01-2.537 1.547zm-3.416 2.083a5.486 5.486 0 119.367-5.712 5.486 5.486 0 01-9.367 5.712zm16.132 15.914a3.527 3.527 0 103.672 6.021 3.527 3.527 0 00-3.672-6.021zm-2.083-3.415a7.527 7.527 0 107.838 12.852 7.527 7.527 0 00-7.838-12.852zm8.971-26.538a3.527 3.527 0 116.022-3.672 3.527 3.527 0 01-6.022 3.672zm-3.415 2.082a7.527 7.527 0 1112.853-7.836 7.527 7.527 0 01-12.853 7.836zm-38.939-5.784a3.527 3.527 0 103.672 6.022 3.527 3.527 0 00-3.672-6.022zm-2.083-3.415a7.527 7.527 0 107.838 12.852 7.527 7.527 0 00-7.838-12.852zm22.471-4.89a3.527 3.527 0 116.022-3.673 3.527 3.527 0 01-6.022 3.672zm-3.415 2.082a7.527 7.527 0 1112.852-7.838 7.527 7.527 0 01-12.852 7.838z" fill="url(#paint0_linear_1_329)"/></mask><g mask="url(#a)"><path fill="url(#paint1_linear_1_329)" d="M.76 0h128v128H.76z"/></g><defs><linearGradient id="paint0_linear_1_329" x1="1.76" y1="1" x2="128.469" y2="1" gradientUnits="userSpaceOnUse"><stop stop-color="#2790F1"/><stop offset="1" stop-color="#0761E9"/></linearGradient><linearGradient id="paint1_linear_1_329" x1=".76" y1="0" x2="128.76" y2="0" gradientUnits="userSpaceOnUse"><stop stop-color="#2790F1"/><stop offset="1" stop-color="#0761E9"/></linearGradient></defs></svg>