<svg width="14" height="15" fill="none" xmlns="http://www.w3.org/2000/svg"><path d="M5.29 3.692c0-.25-.156-.4-.26-.5L2.645.947c-.069-.066-.238-.2-.363-.2-.155 0-.414.15-.777.5-.363.35-.7.574-1.09 1.248C.132 3.168.018 3.567.002 4.04c-.026.749.467 2.146 1.089 3.045.48 1.029 1.514 2.41 2.903 3.643 1.98 1.759 4.602 3.262 6.689 3.394 1.53-.144 2.307-.798 2.955-1.497.26-.225.363-.4.363-.55a.61.61 0 00-.104-.299l-2.23-2.146c-.284-.274-.518-.499-.725-.499-.207 0-.311.1-.415.2-.104.1-1.27 1.198-1.452 1.372-.181.175-.803.474-1.348.175-.544-.3-2.048-1.572-2.514-2.021-.467-.45-1.27-1.423-1.426-1.573-.156-.15-.467-.574-.467-.998 0-.34.139-.574.208-.649L5.03 4.191c.087-.083.26-.3.26-.5z" fill="#000"/></svg>