<svg width="14" height="11" fill="none" xmlns="http://www.w3.org/2000/svg"><path fill-rule="evenodd" clip-rule="evenodd" d="M1.425 4.862A391.568 391.568 0 018.44 1.963C11.77.631 12.46.396 12.91.378c.094 0 .318.018.468.126.112.09.15.217.168.307.02.09.038.288.02.45-.188 1.819-.955 6.266-1.367 8.301-.168.865-.505 1.153-.822 1.189-.693.054-1.235-.45-1.909-.865-1.047-.666-1.646-1.08-2.675-1.728-1.178-.757-.411-1.17.262-1.837.169-.18 3.255-2.863 3.311-3.115 0-.036.019-.144-.056-.198-.075-.054-.168-.036-.243-.018-.112.018-1.796 1.098-5.07 3.223-.486.324-.916.468-1.309.468-.43 0-1.253-.234-1.87-.432-.749-.234-1.347-.36-1.291-.756.037-.199.337-.415.898-.63z" fill="#fff"/></svg>