<svg width="15" height="12" fill="none" xmlns="http://www.w3.org/2000/svg"><path d="M4.804 11.073c5.322 0 8.232-4.245 8.232-7.925 0-.12 0-.242-.006-.358a5.81 5.81 0 001.446-1.444c-.516.22-1.074.37-1.662.44.6-.347 1.056-.89 1.272-1.543A5.998 5.998 0 0112.25.92a2.932 2.932 0 00-2.112-.878c-1.596 0-2.892 1.248-2.892 2.784 0 .22.024.433.078.635A8.317 8.317 0 011.36.55c-.246.41-.39.889-.39 1.397 0 .965.51 1.82 1.29 2.316a2.927 2.927 0 01-1.308-.346v.034c0 1.352.996 2.472 2.322 2.732a2.989 2.989 0 01-1.308.047c.366 1.109 1.434 1.911 2.7 1.934a5.96 5.96 0 01-4.284 1.15 8.288 8.288 0 004.422 1.259z" fill="#fff"/></svg>