<svg width="22" height="13" fill="none" xmlns="http://www.w3.org/2000/svg"><path opacity=".2" fill-rule="evenodd" clip-rule="evenodd" d="M3.467 0H1.133c-.666 0-.8.313-.8.66 0 .618.791 3.683 3.684 7.737 1.928 2.769 4.644 4.27 7.116 4.27 1.484 0 1.667-.334 1.667-.908V9.667c0-.667.14-.8.61-.8.347 0 .94.173 2.324 1.508 1.582 1.582 1.843 2.292 2.733 2.292H20.8c.667 0 1-.334.807-.992-.21-.655-.965-1.606-1.968-2.734-.544-.642-1.36-1.335-1.606-1.681-.347-.445-.247-.643 0-1.038 0 0 2.842-4.005 3.14-5.364.148-.495 0-.858-.707-.858h-2.333c-.593 0-.866.313-1.014.66 0 0-1.187 2.892-2.868 4.77-.544.545-.79.718-1.088.718-.148 0-.362-.173-.362-.667V.858c0-.593-.173-.858-.667-.858H8.467c-.37 0-.593.275-.593.537 0 .562.84.692.927 2.273v3.437c0 .753-.136.89-.434.89-.79 0-2.714-2.906-3.856-6.23C4.287.26 4.063 0 3.467 0z" fill="#000"/></svg>