<svg width="65" height="16" fill="none" xmlns="http://www.w3.org/2000/svg"><path d="M.285.969A1.12 1.12 0 01.228.712c0-.141.053-.271.159-.39a.805.805 0 01.637-.29h2.492c.296 0 .57.1.82.3.25.202.428.455.534.76L7.875 9.93l2.776-8.84c.22-.699.672-1.052 1.354-1.06H14.1c.683 0 1.134.354 1.354 1.06l2.777 8.84 3.004-8.84a1.65 1.65 0 01.535-.758c.25-.201.524-.302.82-.302h2.492c.265 0 .477.097.637.29a.575.575 0 01.102.648l-5.075 13.928c-.28.76-.827 1.139-1.639 1.139h-1.65c-.842 0-1.384-.38-1.627-1.139l-2.777-8.593-2.776 8.593c-.25.76-.793 1.139-1.628 1.139h-1.66c-.805 0-1.348-.38-1.628-1.139L.285.97zM22.6 14.384c-1.556-1.34-2.333-3.456-2.333-6.35 0-2.895.777-5.008 2.333-6.34C24.155.362 26.43-.303 29.427-.303c3.005 0 5.28.665 6.828 1.997 1.555 1.332 2.333 3.445 2.333 6.34 0 2.894-.778 5.01-2.333 6.35-1.547 1.332-3.823 1.998-6.828 1.998-2.996 0-5.272-.666-6.827-1.998zm3.106-10.335c-.766.893-1.149 2.225-1.149 3.996 0 1.763.383 3.091 1.15 3.984.773.886 2.014 1.328 3.72 1.328 1.715 0 2.955-.442 3.722-1.328.766-.893 1.149-2.22 1.149-3.984 0-1.771-.383-3.103-1.15-3.996-.766-.893-2.006-1.34-3.72-1.34-1.707 0-2.948.447-3.722 1.34zm9.377 10.938V1.092c0-.29.103-.54.307-.748.205-.208.456-.313.752-.313h9.387c1.738 0 3.16.458 4.268 1.373 1.115.915 1.673 2.15 1.673 3.705 0 2.166-1.43 3.524-4.29 4.074.447.171.864.454 1.251.848.395.395.843.971 1.343 1.73l2.071 3.226c.13.215.194.402.194.558 0 .067-.012.13-.034.19-.076.2-.262.3-.558.3h-2.731c-.296 0-.614-.1-.956-.3a2.345 2.345 0 01-.785-.748l-1.935-2.969c-.789-1.22-1.752-1.83-2.89-1.83h-2.777v4.799c0 .29-.106.54-.318.747a1.03 1.03 0 01-.751.302h-2.14c-.296 0-.55-.1-.762-.302a1.01 1.01 0 01-.319-.747zm4.29-7.958h4.848c.774 0 1.46-.152 2.06-.457.599-.306.899-.793.899-1.463s-.3-1.157-.9-1.462c-.591-.305-1.278-.457-2.059-.457h-4.848v3.84zm8.706 7.935V1.092c0-.29.106-.544.318-.76.213-.215.467-.323.763-.323h2.139c.296 0 .546.108.751.324.213.215.319.468.319.759v5.346h2.446c.668 0 1.252-.179 1.753-.536.508-.357.99-.934 1.445-1.73l1.764-3.08c.402-.715.948-1.076 1.638-1.083h2.63c.295 0 .47.104.523.313a.559.559 0 01.022.156c0 .17-.064.376-.193.614l-2.47 4.386c-.356.64-.758 1.168-1.206 1.585-.44.416-1.016.71-1.73.881.501.104 1.013.413 1.537.927.53.513.998 1.071 1.4 1.674l2.844 4.442c.13.215.194.402.194.558 0 .067-.011.13-.034.19-.076.2-.262.3-.558.3h-2.606c-.296 0-.614-.1-.956-.3a2.46 2.46 0 01-.796-.748l-2.003-3.114c-.478-.76-.96-1.328-1.445-1.708-.486-.387-1.07-.58-1.753-.58H52.37v5.424c0 .29-.106.536-.319.737-.205.193-.455.29-.751.29h-2.14a1.05 1.05 0 01-.762-.313 1.048 1.048 0 01-.319-.759z" fill="#fff"/></svg>