<svg width="17" height="10" fill="none" xmlns="http://www.w3.org/2000/svg"><path fill-rule="evenodd" clip-rule="evenodd" d="M2.5.647H.75c-.5 0-.6.227-.6.477 0 .446.593 2.66 2.763 5.586 1.446 2 3.484 3.083 5.339 3.083 1.112 0 1.25-.241 1.25-.655V7.627c0-.482.105-.578.458-.578.26 0 .704.125 1.743 1.089 1.187 1.142 1.383 1.655 2.05 1.655h1.75c.5 0 .75-.241.606-.716-.157-.473-.724-1.16-1.476-1.974-.408-.464-1.02-.964-1.205-1.214-.26-.321-.186-.464 0-.75 0 0 2.132-2.89 2.355-3.872.111-.357 0-.62-.53-.62h-1.75c-.445 0-.65.227-.761.477 0 0-.89 2.088-2.152 3.445-.408.392-.593.517-.816.517-.11 0-.272-.125-.272-.482V1.267c0-.429-.13-.62-.5-.62h-2.75c-.279 0-.446.2-.446.388 0 .406.63.5.695 1.642v2.48c0 .544-.102.643-.324.643-.594 0-2.037-2.097-2.893-4.498C3.116.836 2.948.647 2.5.647z" fill="#fff"/></svg>